<?xml version="1.0" standalone="yes"?>
<svg xmlns="http://www.w3.org/2000/svg" width="317" height="317">
<path style="fill:#030303; stroke:none;" d="M0 0L0 317L317 317L317 0L0 0M93 9L92 11L93.1667 11.7778L93.4167 12.3055L93.9722 13.1111L94.3611 14.0278L95.25 16L95.7778 17L96.7778 19L97.25 20L97.8333 21L98.3889 22L99.6111 24L100.194 25L101.389 27L102.611 29L103.75 31L104.25 32L104.833 33L105.389 34L106.694 36L107.417 37L109.083 39L111 41L113 42.9167L114 43.75L115 44.5278L117 45.8055L118 46.3611L119 46.9445L121 47.9167L122 48.3055L124 49.0278L125 49.3889L126 49.8055L128 50.5278L129 50.7778L130 51L132 51.4167L133 51.6945L135 52.3055L136 52.5833L137 52.8055L139 53.1945L141 53.6111L143 53.9167L145 54.0278L146 54.0833L147 54.2222L149 54.6111L151 54.9167L152 54.9722L153 55L155 55L160 55L177 55L177.444 53.5L177.694 52.9445L178.611 51L179.889 49L180.639 48L181.389 47L183.083 45L184.917 43L186.611 41L187.389 40L189.083 38L190.028 37L192 35L194 33L194.972 32L196.778 30.0833L197.611 29.2222L198.389 28.3889L200.083 26.7778L201.028 25.9167L202 24.9722L204 23.0278L205 22.0833L207 20.3889L208 19.6111L210 18L211 17.1945L212 16.4167L214 15L215 14.3333L216 13.6945L218 12.6667L219 12.4167L220 12.4444L221 12.75L223 14.0833L224 14.9445L226 16.6111L227 17.3889L229 19.0833L230 20.0278L231 21L233 23L234 24L235.917 26L237.583 28L238.972 30L239.611 31L240.722 33L241.167 34L241.611 35L241.972 36L242.333 37L243 39L243.667 41L244 42L244.583 44L244.806 45L245.194 47L245.611 49L245.778 50L246 52L246.083 53L246.389 55L246.611 56L246.917 58L246.972 59L247 61L247 62L247 65L247 66L247.028 68L247.083 69L247.389 71L247.611 72L247.917 74L248 76L248 78L247.972 80L247.917 81L247.611 83L247.222 85L247.083 86L247 88L247 89L247 91L247 98L247 117L247 130L247 135L247 137L247.028 139L247.083 140L247.389 142L247.611 143L248.028 145L248.306 146L249.278 147.889L250.528 149.222L252 150L252.417 148.5L252.778 146.944L252.917 146L253 144L252.972 142L252.917 141L252.611 139L252.389 138L252.083 136L252.028 135L252 133L252 132L252 128L252 116L252.722 116.778L252.75 117.306L252.944 118.111L252.972 119.028L253 121L253 123L253 126L253 131L253 133L253.028 134L253.083 135L253.389 137L253.611 138L253.917 140L253.972 141L254 143L254 145L253.972 147L253.917 148L253.611 150L253.417 151L253.306 152L253.528 153.972L254.444 155.667L255.583 156.639L257 157L256.222 158L255.694 158.222L254.889 158.806L253.972 159.25L253 159.833L252 160.389L250 161.667L249 162.333L248 163L246 164.389L245.056 165.111L244.056 165.778L243.5 166.25L242 167L242 169L244 170L244 171L246 171L246.778 169.75L247.306 169.361L248.111 168.639L250 167.333L252 166.028L253 165.389L255 164.25L256 163.778L258 162.778L259 162.222L260 161.778L261 161.25L263 160.389L264 160.028L266 159.333L267 159L269 158.417L270 158.194L272 157.806L273 157.611L274 157.389L276 157.083L278 157L279 157.028L281 157.25L282 157.472L283 157.861L285 158.861L286 159.472L287.972 161.083L288.917 162.028L290.583 164L291.306 165L292.611 167L293.167 168L293.722 169L294.611 171L294.972 172L295.667 174L296 175L296.583 177L297 179L297.389 181L297.611 182L297.917 184L297.972 185L298 186L298 188L298 189L297.917 191L297.583 193L297.306 194L296.611 196L296.167 197L295.75 198L295.222 199L294.75 200L293.528 202L291.917 203.917L290.972 204.778L290 205.583L289 206.306L287 207.611L286 208.194L284 209.389L283 210L281 211.167L280 211.722L279 212.167L278 212.611L276 213.389L274 214.194L272 214.972L270 215.611L269 215.861L268 216.139L267 216.361L266 216.639L265 216.861L263 217.389L261 218.111L259.111 219.25L257.778 220.528L257 222L258.444 222.417L259.556 222.75L261 223L260.222 223.75L259.694 223.861L257.972 224.694L256 226.111L254.028 228L252.333 230L251.75 231L251.417 232L251.333 232.944L251.444 233.944L252 236L251 236L250 234L248 234L247.333 235.5L247.028 236.056L246.306 238L246.111 239L245.917 241L245.778 242L245.389 244L245.083 246L245.028 247L245 249L245 250L245 253L244.972 255L244.917 256L244.611 258L244.389 259L244.083 261L244.028 262L244 264L243.972 265L243.917 266L243.611 268L243.361 269L242.833 271L242.556 272L241.75 274L241.222 275L240.75 276L239.528 277.972L237.917 279.778L236 281.306L234 282.667L232 283.972L231 284.611L229 285.75L228 286.222L226 287.222L225 287.778L223 288.778L222 289.222L221 289.778L219 290.75L218 291.167L217 291.611L215 292.389L213 293.25L212 293.75L210 294.611L209 294.972L208 295.333L207 295.667L204 296.667L201 297.667L199 298.306L198 298.583L197 298.806L195 299.194L194 299.389L192 299.778L191 299.917L189 300L188 300L186 300L179 300L165 300L160 300L159 300L157 299.972L156 299.917L154 299.611L153 299.389L151 299.083L150 299.028L148 299L144 299L132 299L128 299L127 299L125 298.972L124 298.917L122 298.611L121 298.389L119 298.083L118 298.028L116 298L112 298L111 298L109 297.972L108 297.917L106 297.611L105 297.389L103 297.083L101 296.972L100 296.917L98 296.611L97 296.389L95 296.056L94 295.944L92 295.611L90 295.194L88 294.806L87 294.583L86 294.306L84 293.667L82 292.972L81 292.611L79 291.75L78 291.222L76 290.222L75 289.75L73 288.611L72 287.972L70.0278 286.583L68.2222 284.917L67.3889 283.972L65.8611 282L65.1667 281L64.4444 280L63.8333 279L62.6111 277L62 276L60.8889 274L60 272L59.6111 271L58.75 269L58.25 268L57.3889 266L56.6111 264L55.8056 262L55.3889 261L54.6667 259L54.3333 258L53.6944 256L53.4167 255L53.1944 254L52.8056 252L52.3889 250L52.0833 248L52 246L52 244L51.9167 242L51.7778 241.056L51.5833 240.056L51 238L49.5556 238.25L48.4444 238.583L47 239L47.5833 236.944L47.9167 235.056L47.9722 234.056L48 232L49.5 231.75L50.0556 231.583L51.0556 231.306L52 231L54 230.389L56 229.861L57 229.611L59 229L61 228.333L62 228L64 227.306L65 226.889L66.8889 225.75L68.2222 224.472L69 223L66.9444 222.417L65.9444 222.25L65 222.167L63 222.417L61 223L60 223.333L58 224L56 224.611L54 225.139L53 225.389L52 225.694L50 226.306L49 226.611L47 227.139L46 227.389L45 227.694L43 228.306L42 228.611L40 229.139L39 229.361L38 229.611L37 229.806L35 230.194L34 230.389L33 230.611L31 230.917L30 230.972L28 231L26 231L24 231L23 231L21 230.972L20 230.917L18 230.528L17 230.139L16.0278 229.722L14.2222 228.528L12.7222 226.917L12.0833 225.972L11.0833 224L10.4167 222L10.2222 221L10.0833 220L10 218L10 216L10 214L10 212L10.0278 210L10.0833 209L10.3889 207L10.6389 206L11.1389 204L11.3889 203L11.6944 202L12.3333 200L13.0278 198L13.3889 197L13.8333 196L14.25 195L14.7778 194L15.25 193L16.3889 191L17.6944 189L18.4167 188L20.0833 186.028L21.0278 185.083L22 184.222L24 182.694L26 181.417L27 180.889L28 180.417L30 179.694L31 179.417L33 179.056L34 178.944L36 178.639L37 178.472L38 178.444L40 178.639L42 178.917L43 178.972L45 179.028L46 179.083L48 179.389L50 179.806L52 180.222L53 180.472L54 180.833L56 181.639L57 182.056L59 183.083L60 183.722L61 184.417L62.8889 186.028L64.2222 187.5L65 189L67 189L67 188L69 187L67.5278 184.944L65.9167 183L64 181.083L62 179.472L60 178.25L59 177.778L57 176.778L56 176.25L55 175.861L54 175.444L53 175.167L52 174.861L50 174.389L48.0556 174.083L47.0556 174.028L45 174L45.7222 173.278L46.25 173.25L48 173L48 162L46.7778 161.639L45.8889 160.667L45.25 158.972L45.0833 158L45 156L45 154L45 153L45 151L45 144L45 119L45 111L45 108L45 107L45.0833 105L45.2222 104L45.6111 102L45.9167 100L45.9722 99L46 98L46 96L46 91L46.7222 91.7778L46.75 92.3056L46.9444 93.1111L46.9722 94.0278L47 96L47 98L46.9722 100L46.9167 101L46.6111 103L46.3889 104L46.0833 106L46.0278 107L46 109L46 111L46 119L46 143L46 152L46 154L46 155L46.0278 156L46.1111 157L46.7222 158.972L48.0556 160.694L48.5278 161.222L50 162L50.5833 159.944L50.7778 158.944L50.9167 158L51 156L51 154L51 148L51 130L51 124L51 122L51.0278 121L51.0833 120L51.3889 118L51.7778 116L51.9167 115L52 113L52 111L52 108L52 99L52 96L52.0278 94L52.0833 93L52.3889 91L52.6111 90L52.9167 88L53.0278 86L53.0833 85L53.3889 83L53.7778 81L53.9167 80L54.0833 78L54.2222 77L54.3889 76L54.8056 74L55.1944 72L55.3889 71L55.6389 70L55.8611 69L56.1389 68L56.3889 67L57 65L57.6667 63L58.0278 62L58.3889 61L59.25 59L59.75 58L60.6389 56L61.0556 55L62.0556 53L62.6389 52L63.75 50L64.25 49L65.3889 47L66.0278 46L66.6667 45L68 43L69.3333 41L70 40L71.3889 38L72.1389 37L73.6111 35L74.3056 34L75.6944 32L76.3889 31L77.8611 29L78.6111 28L80 26L81.3333 24L83.3333 21L84 20L85.3333 18L85.9722 17L86.6111 16L87.75 14L88.2222 13L88.75 12L89.1389 11.0555L89.7222 9.5L90 8L89 7L86 7L86 8L85 10L84.3889 9.22223L84.7778 8L86.1111 6.72223L87.0278 6.36111L88 6.22223L89 6.36111L90.9444 7.27777L93 9M224 8L225.5 8.27777L227.056 8.91669L229 9.94446L230.917 11.0278L231.778 11.6111L232.583 12.3055L233.306 13.1111L234.667 15L236 17L236.694 18L237.417 19L239.056 21L239.917 21.9445L240.694 22.9445L241.222 23.5L242 25L240.5 24.2222L239.944 23.6945L238.944 22.8889L238 21.9722L236 20L235 19L233 17L231 15.0278L230 14.0833L228 12.3889L226.056 10.8889L225.056 10.2222L224.5 9.75L223 9L224 8M84 11L83 13L82 13L83 11L84 11M207 13L206 14L207 13M81 15L80 16L81 15M80 17L79.5278 18.4445L79.1667 19L78 21L77.5556 20.2222L77.9444 19L78.4722 18.2778L78.7778 17.7778L80 17M201 18L200 19L201 18M105 20L104 21L105 20M76 22.3333L76.3333 22.6667L75.6667 22.6667L76 22.3333M196 22L195 23L196 22M75 24L74 25L75 24M74 26L73 28L72 28L72 27L74 26M243 26L244 28L242.917 27L242.583 26.6667L243 26M245 29L246.167 31L246.528 31.5555L247 33L245.778 32.2222L245.472 31.7222L244.944 31L244.556 29.7778L245 29M70 31L69 33L68 33L69 31L70 31M188 31L187.306 32.5L186.917 33.0555L185.583 35L183.917 37L182.028 39L181.083 40L180.222 41L178.611 43L176.944 45L176.056 46L174.444 47.8889L173.667 48.6945L173.25 49.2222L172 50L171 49L171.667 47.5L172 46.9445L172.5 45.9722L173.583 44.2222L174.889 42.6111L175.639 41.7778L176.389 40.9167L178 39.0278L178.806 38.0833L179.611 37.2222L180.389 36.4167L181.222 35.6945L182.083 35L184 33.6111L185.944 32.2222L186.5 31.75L188 31M213 36L211 36L210 34L208 34L206.861 35.5L206.361 37.0555L206.389 39L206.472 41L206.278 42L205.278 44L203.778 46L202.944 47L202.056 48L200.389 50L199.639 51L198.139 53L197.361 54L196.639 55L195.861 56L194.389 58L193.694 59L193 60L191.667 62L190.389 64L189.833 65L189.278 66L188.889 67L188.5 68.9722L188.583 69.9167L188.972 70.75L189.5 71.5L191.083 72.5278L193 73.1389L194 73.3611L196 73.7778L197 73.9167L199 74L201 73.9167L202 73.7778L204 73.3056L206 72.6667L207 72.3333L209 71.5833L210.972 70.5L212.75 68.9167L213.528 67.9722L214.722 66L215.528 64L215.917 62L215.972 61L216 59L216 58L215.917 56L215.611 54L215.361 53L214.861 51L214.389 49L214.222 48L214.056 46L214.111 45L214.694 43L215.889 41L216.639 40L218.194 38L219.694 36L220.278 35L220.889 33.0555L220.972 32.5L221 31L218.944 31.1111L217.944 31.3333L217 31.7222L215.111 33.0555L213.778 34.5L213 36M86 32L84.75 33.5L84.3611 34.0555L83.6389 35.0555L82.3333 37L81.6667 38L80.3333 40L77 45L75.6667 47L75 48L74.3056 49L73.6111 50L72.8611 51L71.3611 53L70.6389 54L69.1389 56L68.3889 57L67.1111 59L66.3056 60.9445L66.1111 61.9444L66 64L67 65L68.5 65.0833L69.0556 65.2222L70.0556 65.3889L71 65.6111L73 65.9167L74 65.9722L76 66L78 66L81 66L84 66L85 66L87 65.9167L88.9444 65.5556L90.5 64.9722L92 64L92 61.9444L92 60.9445L92 60L91.9167 58L91.5833 56L91.3056 55L90.6667 53L90 51L89.4167 49L89.0556 47L88.9444 46L88.7778 45L88.3889 43L88.25 42L88.1667 41L88.4722 39L88.8333 38L89.1667 37.0555L89.7222 35.5L90 34L88 32L86 32M68 34L67 35L68 34M248 34L248.583 36L248.778 37L248.917 37.5L249 39L248.194 38.2222L248.028 37.6945L247.472 36.0833L247.472 35.3055L247.361 34.7778L248 34M66 37L65.4722 38.5L64.5556 39.9445L63.8056 40.6945L63.4167 41.2222L62 42L62.6944 40.5L63.6667 39.0555L64.3611 38.3055L64.75 37.7778L66 37M250 40L250.25 41.5L250.611 43L250.778 43.9445L250.917 44.5L251 46L250.194 45.2222L250.028 44.6945L249.667 43.8889L249.278 42.1111L249.333 41.3055L249.306 40.7778L250 40M62 43L61 44L62 43M61 45L60 47L59 47L59 45L61 45M83 47L83.75 48.5L83.8333 49.0555L84.1667 50.0555L84.3611 51L84.6389 52L84.8611 53L85.4444 55L85.8333 56L86.5278 57.9445L86.7222 58.5L87 60L74 60L74.3611 58.5L74.6944 57.9445L75.25 56.9445L76.6111 55L78 53L79.3333 51L80 50.0278L80.6389 49.1111L81.3611 48.3055L81.75 47.7778L83 47M59 48L58 49L59 48M209 49L209.25 50.5L209.611 52.0555L209.917 54L209.972 55L210 57L210 59L210 60L209.917 62L209.5 63.9167L209.056 64.75L208.5 65.5L207.75 66.0833L206.917 66.5833L205 67.3056L204 67.5833L202 67.9167L200 68L199 68L198.056 68L195 68L195.333 66.5L196.111 64.9444L197.389 63L198.139 62L199.639 60L200.361 59L201.139 58L201.861 57L203.389 55L204.194 54L205.806 52.0278L207.333 50.3055L207.75 49.7778L209 49M58 50L57 51L58 50M252 50L252 53L251.306 52.25L251.306 51.1945L251.306 50.75L252 50M57 52L56 53L57 52M56 54L56 55L55 57L54.3889 56.25L54.5278 55.8055L54.8889 54.75L56 54M253 54L253.028 55.5L253.222 57.0555L253.611 59L253.917 61L253.972 62L254 64L254 67L254 76L254 104L253.278 103.222L253.25 102.694L253.056 101.889L253.028 100.972L253 99L253 97L253 93L253 76L253 70L253 69L252.972 67L252.917 66L252.611 64L252.222 62L252.083 61L252 59L252.028 57.0278L252.056 56.1111L252.25 55.3055L252.278 54.7778L253 54M54 58L53.75 59.4445L53.4167 60.5555L53 62L52.3611 61.2222L52.5 60L52.8889 59.2778L53.0278 58.7778L54 58M51.6667 63.6667L51.6667 64L51.3333 64.3333L51.3333 63.6667L51.6667 63.6667M51 66L51 69L50.3056 68.25L50.3056 67.1944L50.3056 66.75L51 66M50 71L49.9167 73.0556L49.6111 75L49.2222 76.9444L49.0833 77.5L49 79L48.2778 78.2222L48.2778 77.6944L48.1389 76.8889L48.3889 75L48.6389 74.0278L48.8333 73.1111L49.1667 72.3056L49.25 71.7778L50 71M126 73L126.056 75.0556L126.167 77L126.222 78L126.139 80L126.056 81L126 83L126 84L126 85L126.083 87L126.222 88L126.389 89L126.806 91L127.222 93L127.472 94L128.278 95.9722L129.472 97.7778L131.083 99.3056L132.028 99.9722L134 101.083L135 101.528L136 101.833L138 102.361L139 102.611L141 102.917L142 102.972L144 103.028L145 103.083L147 103.389L148 103.611L150 103.917L151 103.972L153 104L155 103.917L157 103.611L158 103.389L159 103.222L160 103.056L161 102.944L163 102.583L164 102.306L166 101.667L168 100.917L169 100.444L171 99.3056L173 98L175 96.5833L176.889 94.9167L178.278 93L178.667 92.0556L178.972 90.5L179 89L176.944 89.1111L175.944 89.3333L175 89.6944L173 90.8889L171 92.3056L170 93L168 94.3056L167 94.9167L165 95.9167L163 96.6111L162 96.8611L161 97.1389L160 97.3611L159 97.6111L157 97.9167L156 97.9722L154 98L152 98L150 98L149 98L148 98L146 97.9167L145 97.7778L144 97.6111L142 97.1944L140 96.8056L139 96.5833L137 95.8889L136.028 95.3611L135.083 94.6944L133.5 92.9722L132.5 91L132.083 89L132.028 88L132 86L132 84.0556L132 81L133.5 81.0278L135.056 81.2222L137 81.6111L139 81.9167L140 81.9722L142 81.9167L143.944 81.5833L146 81L146.472 82.4444L146.833 83L148 85L151 85L151.722 83.5556L151.75 83L152 81L162 81L165 81L166 81L168 80.9167L169.944 80.5556L171.5 79.9722L173 79L172.639 77.5278L171.667 76.2778L169.972 75.3333L169 75.1111L168 75.0278L167 75L166 75L163 75L157 75L155 75L154 75.0278L153 75.0833L151 75.3889L150 75.6111L148 75.9167L147 75.9722L145 76L144 76L142 76L140 76L139 76L137 75.9167L135 75.5L133 74.6111L131 73.6389L129.056 73.1111L127.5 73L126 73M48 84L48 90L47.2778 89.2222L47.25 88.6944L47.0556 87.8889L47.0556 86.1111L47.25 85.3056L47.2778 84.7778L48 84M121 122L119.694 120.278L118.889 119.694L117 119.444L116 119.75L115 120.333L114 121.083L112 122.778L111 123.611L109 125.139L108 125.861L107 126.611L105 127.972L103 129.167L102 129.722L100 130.611L99 130.972L98 131.306L96 131.75L95 131.833L93 131.611L92 131.361L90 130.861L89 130.639L88 130.361L86 129.833L85 129.556L83 128.722L82 128.167L81 127.611L79 126.306L78 125.583L76.0278 123.917L75.0833 122.972L73.5 121L72.5 119L72.25 118.056L72.0278 116.5L72 115L84 115L83.2778 116.5L83.2778 117.056L83.1389 118.056L83.3889 120L83.8889 122L84.1944 122.944L84.6389 123.944L84.8611 124.5L86 126L87.3889 125.222L88.3333 123.889L88.8889 122L88.9167 120L88.5556 118.056L88.1389 117.056L87.9722 116.5L87 115L92 115L94 115L95 115.028L96 115.083L98 115.389L99 115.611L101 115.917L102 115.972L104 116L105 116L107 116L110 116L111 116L112 115.972L112.944 115.944L113.944 115.75L114.5 115.722L116 115L116 112L115 111L111.944 111L110 111L108 110.972L107 110.917L105 110.611L104 110.389L102 110.083L101 110.028L99 110L97 109.972L96 109.917L94 109.611L93 109.389L91 109.083L90 109.028L89 109L87 109L82 109L78 109L76 109L75 109L73 109.111L71.0833 109.722L70.2222 110.333L68.7222 112.028L68.1111 113L67.6389 114L67.3056 115L67.1111 116L67.0278 117L67.0278 119L67.0833 120L67.5 122L68.5 124L69.25 125L70.0833 126L72 127.972L73 128.917L75 130.583L76 131.306L78 132.583L80 133.583L82 134.389L84 135.167L85 135.556L86 135.833L87 136.139L89 136.611L91 136.917L92 136.972L93 137L95 137L97 137L99 136.917L100 136.75L101 136.528L102 136.139L104 135.222L105 134.75L107 133.611L109 132.306L110 131.583L112 130L114 128.389L115 127.611L117 125.917L117.944 125.028L118.944 124.056L121 122M181 110L180.917 111.5L180.778 112.056L180.611 113.056L180.389 114L180.083 116L180.028 117L180 118L180 120L180 122L180.028 123L180.083 124L180.417 126L180.694 127L181.417 129L182.5 131L184.083 132.972L185.028 133.917L187 135.528L188 136.139L190 137.167L192 137.972L194 138.583L196 138.917L197 138.972L199 139L201 138.917L203 138.583L204 138.306L206 137.611L207 137.167L208 136.75L209 136.222L210 135.75L212 134.611L214 133.306L216 131.806L218 130.194L219 129.389L220 128.611L222 126.917L223 125.972L225 124L226 123L228 121L230 119L231 118L232.889 116L233.667 115L234.278 114L234.889 112.056L235 110.5L235 109L232.944 109.111L231.944 109.333L230 110.333L229 111.111L228.056 111.972L227.056 112.944L225 115L225 111L224 110L222.5 109.917L221.944 109.778L220.944 109.611L220 109.389L218 109.083L217 109.028L215 109L213 109L206 109L196 109L193 109L191 109.028L190 109.083L188 109.389L187 109.611L185 109.917L184.056 109.972L183.056 110L181 110M225 115L224.222 116.5L223.694 117.056L222.889 118.056L222.028 118.944L221.056 119.944L219 122L217.5 121.25L216.944 120.806L215 119.694L213 119.028L211 118.528L210 118.167L208.056 117.472L207.5 117.278L206 117L205 118L205.361 119.5L206.333 120.972L208.028 122.5L210 123.528L211.944 124.139L212.944 124.389L215 125L214.222 126.083L213.694 126.444L212.889 127.194L211.972 127.861L211 128.611L209 129.972L208 130.611L206 131.722L205 132.139L204 132.528L202 132.917L200 133L199 133L197 133L195 132.917L194 132.75L193 132.528L191 131.722L189.083 130.528L188.25 129.75L187.5 128.917L186.5 127L186.083 125L186.028 124L186 122L186 120L186 115L204 115L210 115L212 115L213 115L215 115L216 115.028L217 115.083L219 115.389L220 115.583L221 115.694L221.944 115.694L222.944 115.556L225 115M157 135L156.278 136.5L156.139 138.056L156.389 140L156.611 141L156.917 143L157.028 145L157.083 146L157.389 148L157.611 149L157.917 151L157.972 152L158 154L158 155L158 158L158 218L155.944 218L154 218.028L153 218.083L151 218.389L150 218.639L149 218.861L148 219.139L146 219.639L145 219.861L144 220.167L143 220.444L141 221.25L140 221.778L138 222.778L137 223.25L136 223.861L135 224.472L134 225.25L133 226.083L131.083 228L129.417 230L128.028 232L127.417 233L126.417 235L125.694 237L125.417 238L125.083 240L125.111 242L125.278 242.944L125.861 244.5L127 246L128.389 245.222L129.361 243.889L130.111 242L130.694 240L131.389 238L132.278 236L132.861 235L133.472 234L135.083 232.028L136.028 231.083L138 229.472L139 228.861L141 227.778L143 226.778L144 226.25L145 225.861L146 225.444L147 225.167L148 224.861L150 224.389L152 224L154 223.611L154.944 223.389L155.944 223.222L156.5 223.083L158 223L158.056 225L158.25 226L158.278 226.5L159 228L160.472 227.639L161.722 226.667L162.278 225.944L162.889 224.5L163 223L165.056 223L166.056 223L167 223L169 223.083L170 223.25L171 223.472L172 223.861L174 224.861L174.972 225.472L176.778 227.083L177.583 228.028L178.306 229L179.583 231L180.583 233L180.972 234L181.611 236L181.861 237L182.361 239L182.611 240L182.806 241L183.194 243L183.389 244L183.806 246L184.222 247.944L184.278 248.5L185 250L186.5 249.889L188 249.333L188.5 249.139L190 248L189.417 245.944L189.056 244L188.944 243L188.611 241L188.194 239L187.806 237L187.583 236L187.306 235L186.611 233L185.75 231L185.222 230L184.222 228L183.75 227L183.139 226L182.528 225L180.917 223.028L179.972 222.083L179 221.25L178 220.472L177 219.861L176 219.278L174 218.444L172 217.861L171 217.639L170 217.389L168 217.083L166.056 217L165.056 217L163 217L163 194L163 187L163 184L163 183L163.083 181L163.222 180L163.611 178L163.917 176L163.972 175L164 173L164 171L164 168L164 166L163.917 164L163.611 162L163.389 161L163.083 159L163.028 158L163 157L163 155L163 153L163 149L163 147L162.917 145L162.611 143L162.389 142L162.056 140L161.917 139L161.667 138.028L161.278 137.111L160.667 136.333L159.028 135.333L158.5 135.111L157 135M169 153L169 155L171.056 156.306L172.056 156.639L174 156.583L175 156.389L177 156.083L178 156.028L180 156L181 156L183 156L184 156L186 155.972L187 155.917L189 155.611L191 155.222L192 155.083L194 155L195 155L197 155L202 155L204 155L206 154.917L206.944 154.778L207.944 154.583L210 154L208.5 155.472L206.944 156.833L205 158.389L203 160.083L202 161.028L201 162L199 164L196 167L194 169L192 171L190.083 173L188.417 175L187.694 176L186.389 178L185.833 179L184.861 181L184.472 182L184.25 183L184.083 183.944L184 185.5L184 187L185.5 187.972L186.056 188.139L187.056 188.583L188 188.833L190 189.361L191 189.611L193 189.917L194 189.972L196 190L197 190L199 190L209 190L208.222 191.5L207.694 192.056L206.889 193.056L205.972 194L205 195L204 196L202 197.917L200 199.611L199 200.389L197 202L195 203.583L194 204.306L193 205L191 206.389L190 207.139L188 208.639L187 209.389L185.111 211.083L184.333 211.972L183.361 213.5L183 215L184.5 215.722L186.056 215.833L188 215.361L189 214.889L191 213.611L193 212.139L194 211.361L195 210.639L196 209.861L197 209.139L199 207.611L200 206.806L202 205.194L204 203.611L206 201.917L207 200.972L208 200L210 198L211.972 196L212.889 195L214.278 193L214.861 191L214.667 189.028L214.278 188.083L212.889 186.5L211 185.5L209 185.083L208 185.028L206 185L205 185L202 185L200 184.972L199 184.917L197 184.611L196 184.389L194 184.083L193.056 184.028L192.056 184L190 184L190.528 182.5L190.917 181.944L191.472 180.944L192.167 180L192.861 179L194.389 177L196.083 175L197.028 174L198 173L200 171L202 169L203 168L205 166.083L206 165.222L207 164.389L209 162.778L210 161.917L212 160L213 159L214.917 157L216.5 155.056L217.472 153.5L218 152L215.944 150.278L214.944 149.667L213 149.111L212 149.028L211 149L210 149L208 149L205 149L203 149L201 149.028L200 149.083L198 149.389L197 149.611L195 149.917L194 149.972L192 150L191 150L188 150L186 150.028L185 150.083L183 150.389L181 150.778L180 150.917L178 151L177 151L175 151L174 151.028L173 151.111L172.056 151.278L170.5 151.861L169 153M275 151L278.056 151L279 151L280 151.028L280.944 151.056L281.944 151.25L282.5 151.278L284 152L283.222 152.472L282.694 152.361L281.889 152.333L280 152.083L278 152L276.056 152L274 152L275 151M273 152L272.278 152.722L271.75 152.75L270 153L270.722 152.278L271.25 152.25L273 152M110 155L110 158L111 159L115 159L115.083 161.056L115.389 163L115.861 165L116.139 166L116.389 167L116.694 168L117 169L117.667 171L118.028 172L118.417 173L119.417 175L120.611 177L121.806 179L122.389 180L123.611 182L124.75 184L125.222 185L125.778 186L126.222 187L126.75 188L127.528 190L127.75 190.944L127.972 192.5L128 194L126.5 194.278L124.944 194.917L123 196L122 196.611L120 197.75L119 198.222L118 198.778L117 199.222L116 199.778L115 200.222L114 200.778L113 201.25L112 201.833L110 203.028L108 204.417L106.028 206.083L105.111 207.028L103.722 209L103.222 211L103.361 211.972L103.722 212.889L105.111 214.278L107 214.972L109 215.389L110 215.611L112 215.917L113 215.972L114 216L116 216L118 216L121 216L123 216L124 215.972L125 215.917L127 215.611L129 215.222L130 215.083L132 214.917L133 214.778L134 214.611L136 214.194L138 213.806L139 213.583L140 213.306L142 212.694L143 212.389L145 211.861L146 211.611L147.917 210.889L149.5 209.75L150.472 208.472L151 207L149 206L148 205L145.944 205.611L144 206.139L143 206.389L142 206.694L140 207.306L139 207.611L137 208.139L136 208.361L135 208.611L134 208.806L132 209.194L131 209.389L130 209.611L128 209.917L127 209.972L125 210L124 210L121 210L110 210L111.5 208.944L112.056 208.611L114 207.389L115 206.833L116 206.25L118 205.222L119 204.75L121 203.639L122 203.056L123 202.528L125 201.472L126 200.917L127 200.306L129 199L129.972 198.306L130.917 197.583L132.5 195.917L133.5 194L133.722 193L133.833 192L133.583 190L133.306 189L132.611 187L132.167 186L131.75 185L130.75 183L130.167 182L129.611 181L128.389 179L127.806 178L126.611 176L125.389 174L124.833 173L124.278 172L123.833 171L123.389 170L122.694 168L122.389 167L122.139 166L121.611 164L121.306 163L120.667 161.056L120.444 160.5L120 159L122.056 159L123.056 158.972L124 158.917L126 158.611L127 158.389L129 158.083L130 158.028L131 158L133 158L134 158L136 158L143 158L146 158L147 158L148 157.972L148.944 157.944L149.944 157.75L150.5 157.722L152 157L152 154L151 153L125 153L121 153L119 153L117 153L115 153.083L113.056 153.444L111.5 154.028L110 155M267 153L266.222 153.972L265.75 154.139L264.472 154.722L263 155L263.778 154.028L264.25 153.861L265.528 153.278L267 153M287 153L288 155L286.917 154L286.583 153.667L287 153M261 155L260 156L261 155M290 155L292.028 157.056L292.944 158L293.694 158.944L294.222 159.5L295 161L293.5 160.222L292.944 159.694L291.972 158.889L290.389 157.111L289.972 156.306L289.639 155.778L290 155M259 156L258 157L259 156M297 162L297 164L296 164L295 162L297 162M298 165L299 166L299 168L298.056 167.25L297.917 166.806L297.556 165.75L298 165M300 169L299 170L300 169M301 171L300 172L301 171M253 185L254.5 184.889L255.972 184.278L257.611 182.889L258.389 182L260.083 180.333L262 179.333L264 179.056L265 179.083L266.972 179.5L267.917 179.944L268.778 180.5L270.306 182.083L271.583 184L272.583 186L273.306 188L273.583 189L273.917 191L274 192.944L274 193.944L274 196L272.5 196.25L270.944 196.639L270 196.861L268 197.361L266 197.694L265 197.694L264 197.556L262 196.972L260.028 196.083L259.083 195.5L257.472 193.917L256.861 192.972L256.278 192L255.833 191L254.917 189.083L253.75 187.5L252.472 186.528L251 186L249.861 187.5L249.306 189.056L249.194 190L249.417 192L250.083 194L250.556 195L251.083 196L252.417 197.972L253.222 198.917L255.028 200.528L256 201.139L258 202.167L259 202.611L261 203.306L262 203.583L264 203.917L266 203.972L267 203.917L269 203.611L270 203.361L272 202.833L273 202.528L275 201.5L276 200.75L276.972 199.917L277.889 198.972L279.278 197L279.889 195L280 193L280 192L279.972 190L279.917 189L279.583 187L279.306 186L278.611 184L278.167 183L277.139 181L276.528 180L274.917 178L273.972 177.028L273 176.083L271 174.5L270 173.917L268 173.028L267 172.722L266 172.5L264 172.472L263 172.667L261 173.139L260 173.389L258 174.111L257 174.639L255.083 176.111L253.5 178L252.5 180L252.139 181.944L252.278 183.5L253 185M33 173L32.2222 173.75L31.6944 173.833L29.9722 174.444L29 174.833L27.0556 175.528L26.5 175.722L25 176L25.7778 175L26.3056 174.778L27.1111 174.222L29 173.472L30.9444 173.083L33 173M301.667 173.667L301.667 174L301.333 174.333L301.333 173.667L301.667 173.667M24 176L23 178L22 178L22 177L24 176M302.667 177.667L302.667 178L302.333 178.333L302.333 177.667L302.667 177.667M21 178L20.2222 179.5L19.6944 180.056L18.8889 181.056L17.9722 182L16.0556 183.889L15.0556 184.694L14.5 185.222L13 186L13.7778 184.5L14.3056 183.944L15.1111 182.944L16.0278 182L17.9444 180.111L18.9444 179.306L19.5 178.778L21 178M304 180L304 185L303.278 184.222L303.25 183.694L303.083 182.083L303.25 181.306L303.278 180.778L304 180M25 209L26.5 208.889L27.9722 208.278L29.5 206.889L30.5278 205L31.1389 203L31.3889 202L32.0278 200L32.4167 199L33.4167 197L34.6944 195L35.4167 194.028L36.2222 193.083L38.0278 191.472L40 190.278L41 189.861L42 189.444L44 188.861L45 188.639L47 188.222L49 188.139L50.9722 188.722L51.8889 189.333L53.2778 191.028L53.8889 193L53.9722 195L53.8889 196L53.2778 198L52.6667 199L50.9722 200.917L49 202.5L48 203.083L47 203.583L45 204.278L44 204.5L42.0556 204.528L40.5 204.25L39 204L37 206L37 208L38.5 209.389L39.0556 209.722L41 210.667L42 210.889L44 210.917L46 210.583L47 210.306L49 209.611L50 209.167L52 208.139L53 207.528L55 205.917L56.9167 204L58.5 202L59.0556 201L59.8333 199L60.3611 197L60.6944 195L60.5833 193L60.1389 191L59.8333 190L59.5278 189L58.5 187L57.75 186.028L55.9722 184.25L55 183.5L53 182.5L52 182.25L51 182.083L49 182L47 182.028L46 182.083L44 182.417L42 183L41 183.333L39 184.028L38 184.417L36 185.417L35 186.028L34 186.694L32.0833 188.222L31.2222 189.083L30.4167 190.028L29.0278 192L27.8333 194L27.2778 195L26.8333 196L26.3889 197L25.6944 199L25.1389 201L24.6389 203L24.3889 204L24.1389 205.944L24.2778 207.5L25 209M13 187L13 188L11 189L11 188L13 187M11 190L10.3333 191.75L10.1389 192.278L9 193L9.83333 191.25L10.0278 190.722L11 190M304 191L304 194L303.306 193.25L303.306 192.194L303.306 191.75L304 191M9 195L8.5 196.5L7.80556 198L7.5 198.5L7 200L6.36111 199.222L6.5 198.694L6.55556 197.917L7.44444 196.306L7.77778 195.778L9 195M302.667 195.667L302.667 196.333L302.333 196.333L302.333 195.667L302.667 195.667M302 199L301 201L300 201L300 200L302 199M300 202L299.472 203.389L299.139 203.722L298.222 204.639L297 205L298.25 203.25L298.611 202.722L300 202M6 203L5.91667 204.5L5.77778 205.056L5.38889 207L5.08333 208.944L5 211L4.27778 210.222L4.25 209.694L4.08333 208.889L4.22222 207L4.66667 205.111L5.02778 204.306L5.19444 203.778L6 203M297 206L296 207L297 206M295 208L294.222 209.417L293.694 209.806L292.944 210.556L291.5 211.472L290 212L290.778 210.583L291.306 210.194L292.056 209.444L293.5 208.528L295 208M289 212L288 214L287 214L287 213L289 212M286 214L285.222 215.222L284.694 215.583L283.028 216.722L282.056 217.167L281.5 217.5L280 218L280.778 216.778L281.306 216.417L282.972 215.278L283.944 214.833L284.5 214.5L286 214M279 218L278 219L279 218M5 219L5 223L4.27778 222.222L4.11111 221L4.27778 220.278L4.27778 219.778L5 219M276 219L275.222 219.972L274.75 220.139L273.472 220.722L272 221L272.778 220.028L273.25 219.861L274.528 219.278L276 219M269 221.333L269.333 221.667L268.667 221.667L269 221.333M266 222.333L266.333 222.667L265.667 222.667L266 222.333M263 223.333L263.333 223.667L262.667 223.667L263 223.333M6 224L5 225L6 224M7 226L7.66667 227.444L8.33333 228.556L9 230L7.61111 229.222L7.30556 228.722L6.72222 228L6.38889 226.778L7 226M10 231L11.9444 232.417L12.75 233.222L13.2222 233.583L14 235L12.5 234.472L11.0833 233.528L10.3889 232.861L9.97222 232.222L9.63889 231.75L10 231M45 233.333L45.3333 233.667L44.6667 233.667L45 233.333M43 234L42.2778 234.722L41.75 234.75L40 235L40.7222 234.278L41.25 234.25L43 234M17 235L16 236L17 235M36 235.333L36.3333 235.667L35.6667 235.667L36 235.333M21 236L20.2778 236.722L19.75 236.75L18 237L18.7222 236.278L19.25 236.25L21 236M30 236L33 236L34 237L29 237L30 236M47 240L47 251L46.2778 250.222L46.25 249.694L46.0556 248.889L46.0278 247.972L46 247L46 245L46.0278 243.028L46.0556 242.111L46.25 241.306L46.2778 240.778L47 240M251.667 240.667L251.667 241L251.333 241.333L251.333 240.667L251.667 240.667M251 251L251 262L250.278 261.222L250.25 260.694L250.056 259.889L250.028 258.972L250 258L250 256L250.028 254.028L250.056 253.111L250.25 252.306L250.278 251.778L251 251M48.6667 257.667L48.6667 258L48.3333 258.333L48.3333 258L48.6667 257.667M50.6667 263.667L50.6667 264.333L50.3333 264.333L50.3333 264L50.6667 263.667M52 266L51 267L52 266M249.667 267.667L249.667 268.333L249.333 268.333L249.333 268L249.667 267.667M53 268L52 269L53 268M54 270L53 271L54 270M248.667 272.667L248.667 273.333L248.333 273.333L248.333 273L248.667 272.667M55 273L54 274L55 273M56 275L55 276L56 275M248 275L247 276L248 275M247 277L246 278L247 277M58 278L58 279L59 281L57.8889 280.25L57.5278 279.194L57.3889 278.75L58 278M245 280L244.222 281.5L243.694 282.056L242.889 283.056L241.056 284.889L240.056 285.694L239.5 286.222L238 287L238.778 285.5L239.306 284.944L240.111 283.944L241.944 282.111L242.944 281.306L243.5 280.778L245 280M60 282L61 284L59.9167 283L59.5833 282.667L60 282M62 285L64.0556 287.056L65.0278 288.056L65.8889 288.944L66.6944 289.944L67.2222 290.5L68 292L66.5 291.222L65.9444 290.694L64.9444 289.889L63.1389 288.028L62.3889 287.111L61.9722 286.306L61.6389 285.778L62 285M237 287L236 288L237 287M235 288L235 289L233 290L233 289L235 288M232 290L231.278 291.139L230.75 291.333L229 292L229.722 291.028L230.25 290.833L232 290M228 292L227 293L228 292M71 293L70 294L71 293M224 294.333L224.333 294.667L223.667 294.667L224 294.333M75 295L74 296L75 295M222 295L221.278 296.139L220.75 296.333L219 297L219.722 296.028L220.25 295.833L222 295M79 297L78 298L79 297M81 298L80 299L81 298M215 298.333L215.333 298.667L214.667 298.667L215 298.333M85 299L84 300L85 299M88 300.333L88.3333 300.667L87.6667 300.667L88 300.333M210 300L209 301L210 300M94 301L93 302L94 301M98 302L101 302L102 303L97 303L98 302M205 302L204 303L205 302M104 303L110 303L109.222 303.722L108.694 303.75L107.889 303.944L106.972 303.972L106.056 304L105.056 304L103 304L104 303M202 303.333L202.333 303.667L201.667 303.667L202 303.333M122 304L143 304L142.222 304.722L141.694 304.75L140.889 304.944L139.972 304.972L138 305L137 305L135 305L121 305L122 304M197 304.333L197.333 304.667L196.667 304.667L197 304.333M145 305L163 305L162.222 305.722L161.694 305.75L160.889 305.944L159.972 305.972L159 306L158 306L156 306L144 306L145 305M195 305L194.222 305.722L193.75 305.75L192.944 305.944L191 306L191.778 305.278L192.25 305.25L193.056 305.056L195 305z"/>
</svg>
